#tb 0: 1/25
0,          0,          0,        1,   182328, 928d49b37c9918a1a8674a5ebf20e05a
0,          1,          1,        1,   182336, c662168526d8fcaa2d8fea224eac8814
0,          2,          2,        1,   182956, 04dd499aea666d39e6e3579441f694a5
0,          3,          3,        1,   182384, 230828b8a0eabf61a61f53009639ba4d
0,          4,          4,        1,   181704, 5e03ab58b4480a6613f54857f10c39e5
0,          5,          5,        1,   182136, 6ee23e8eba131ae876d0e0ea7c5f40bb
0,          6,          6,        1,   181552, a930b6040ac40209da63ae14aad00169
0,          7,          7,        1,   182292, f504d5207bcd7f06064d81e438063b83
0,          8,          8,        1,   181424, b91cad343cfccdaddacbe7de21dfea76
0,          9,          9,        1,   182316, 53ed29545ff5aadc232d0fa147612d31
0,         10,         10,        1,   182064, 393d810a2838b1a997c73c485a6f7114
0,         11,         11,        1,   182596, af0c838f2268ef5a6f071cd3af4213b1
0,         12,         12,        1,   180900, 3eef962799e950342d36d069c6d16c72
0,         13,         13,        1,   181920, 0d20f588c27471a038e159a131e9c8ea
0,         14,         14,        1,   182824, 7a15ecc62b8f1e127887ce1a4f27888e
0,         15,         15,        1,   182452, b5dd047a2c6ff876334511962ba3de22
0,         16,         16,        1,   182312, c974923e3d99157667410bd8185b98d2
0,         17,         17,        1,   181856, e2e836553f3bb1049a462410686ebd37
0,         18,         18,        1,   181108, 3b6d955727c6bb1c83e10783d5e322ca
0,         19,         19,        1,   181388, 19bb766c008267a87ff2bf17233bcd24
0,         20,         20,        1,   180936, c48c9f308e1d58cd227cade9f40d644d
0,         21,         21,        1,   180900, a4b5e482edd1ab63bcd107e448889b6f
0,         22,         22,        1,   181936, 43a88f8818a761ad0774e93cec6e8e34
0,         23,         23,        1,   182304, 1f75b25b6f3944cea81842d74b44ba15
0,         24,         24,        1,   182580, 9185ed53b7e8339b61d3abe230bbab71
0,         25,         25,        1,   182572, f4ece21bb56548d7df0333ccf5c5cf44
0,         26,         26,        1,   182356, 281975b0138e5e3eeb2f9832b5e56bf1
0,         27,         27,        1,   181532, ce685ee2c76c3b17a63918e967371f91
0,         28,         28,        1,   179580, 331569af5ce83bd08ed631b66f3abba4
0,         29,         29,        1,   179528, 5e0fbd62a164dc72cf511023da792175
0,         30,         30,        1,   180760, 5b30e7182136e59a5da4a345f22bcb6c
0,         31,         31,        1,   181564, 53919baccc7eedc83f8a242581f0dc83
0,         32,         32,        1,   181428, 94221b58afd266a92d763b32a5c7ee8d
0,         33,         33,        1,   182980, 202c771f9d1056f8e0000028c716f134
0,         34,         34,        1,   182624, a0a1466f85870adf5fae0c922aeba348
0,         35,         35,        1,   182352, a0d790951e4f2c0e80aa94f88456d9ca
0,         36,         36,        1,   181336, ac8fbab67b36d58c4e8374bfb07458e7
0,         37,         37,        1,   181528, 91150acfb9da0656d52dab68b4b526df
0,         38,         38,        1,   179776, 0d91b14f5e87671583db9adbc5306247
0,         39,         39,        1,   180100, 062e4af150100d7accf86a907a4b99b5
0,         40,         40,        1,   180228, 23c617b76ef8f274bd089016fb8516c7
0,         41,         41,        1,   180592, 72e3aaa7131e2385845600f0793022c6
0,         42,         42,        1,   181188, 3e50bceb61a1a880f21e6f1b713c4ee3
0,         43,         43,        1,   181300, c001028d3481dc5be1c694cb4693c879
0,         44,         44,        1,   180812, bb0cabd09e9c0d4717c936a6d6532cce
0,         45,         45,        1,   178816, cae14eb93a455bd8210ab7f2f8ef31f7
0,         46,         46,        1,   178196, 5d8bb486d7b6e241e2cbd3702a97dba2
0,         47,         47,        1,   178772, 63a30c640a7aed626e4bcc749e7e594a
0,         48,         48,        1,   178652, db9f7c1968896659c00dc50cf7070184
0,         49,         49,        1,   178512, 28ce86e70639638a6da209a3e9d63eb5
